<svg width="96" height="25" viewBox="0 0 96 25" fill="none" xmlns="http://www.w3.org/2000/svg">
<g opacity="0.7">
<path fill-rule="evenodd" clip-rule="evenodd" d="M11.1459 1.20205H5.89337C5.77791 1.20205 5.68431 1.10845 5.68431 0.992997V0.209053C5.68431 0.0935963 5.77791 0 5.89337 0H11.1459C14.9704 0 18.0708 3.10036 18.0708 6.92486V7.63041C18.0708 8.77386 17.7937 9.85258 17.3029 10.8031C16.9995 10.5365 16.6667 10.2994 16.3133 10.093C16.6694 9.34708 16.8687 8.51203 16.8687 7.63041V6.92486C16.8687 3.76424 14.3065 1.20205 11.1459 1.20205ZM13.1692 9.11546C13.6218 9.15116 14.0784 9.23028 14.5264 9.35103C14.8364 8.76983 15.0129 8.10129 15.0129 7.38998V7.19145C15.0129 4.95157 13.2628 3.1358 11.104 3.1358L10.1785 3.1358C10.063 3.1358 9.96942 3.22939 9.96942 3.34485V4.23136C9.96942 4.34681 10.063 4.44041 10.1785 4.44041L11.104 4.44041C12.5684 4.44041 13.7555 5.67209 13.7555 7.19145V7.38998C13.7555 8.04336 13.536 8.64355 13.1692 9.11546ZM14.8707 9.45266C15.2616 9.57813 15.6432 9.73571 16.0067 9.92416C16.3575 9.20024 16.5542 8.38815 16.5542 7.53026V7.02459C16.5542 3.98196 14.0806 1.51542 11.0293 1.51542H8.13975C8.02429 1.51542 7.9307 1.60902 7.9307 1.72448V2.53063C7.9307 2.64608 8.02429 2.73968 8.13975 2.73968H11.0293C13.4025 2.73968 15.3264 4.6581 15.3264 7.02459V7.53026C15.3264 8.2215 15.1623 8.87452 14.8707 9.45266ZM2.6526 4.23327C2.6526 4.34873 2.55901 4.44232 2.44355 4.44232H1.34601C1.23055 4.44232 1.13695 4.34872 1.13695 4.23327V3.3448C1.13695 3.22934 1.23055 3.13574 1.34601 3.13574H2.44355C2.55901 3.13574 2.6526 3.22934 2.6526 3.3448V4.23327ZM6.10177 4.44237C6.21723 4.44237 6.31082 4.34878 6.31082 4.23332V3.34485C6.31082 3.22939 6.21723 3.1358 6.10177 3.1358L4.35092 3.1358C4.23547 3.1358 4.14187 3.22939 4.14187 3.34485V4.23332C4.14187 4.34878 4.23547 4.44237 4.35092 4.44237H6.10177ZM9.68208 4.23332C9.68208 4.34878 9.58848 4.44237 9.47303 4.44237H7.12115C7.00569 4.44237 6.91209 4.34878 6.91209 4.23332V3.34485C6.91209 3.22939 7.00569 3.1358 7.12115 3.1358L9.47303 3.1358C9.58848 3.1358 9.68208 3.22939 9.68208 3.34485V4.23332ZM3.56679 4.44237C3.68225 4.44237 3.77585 4.34878 3.77585 4.23332V3.34485C3.77585 3.22939 3.68225 3.1358 3.56679 3.1358H3.41C3.29454 3.1358 3.20094 3.22939 3.20094 3.34485V4.23332C3.20094 4.34878 3.29454 4.44237 3.41 4.44237H3.56679ZM5.0567 1.20205C5.17215 1.20205 5.26575 1.10845 5.26575 0.992998V0.209054C5.26575 0.0935967 5.17215 0 5.0567 0H4.06368C3.94822 0 3.85462 0.0935963 3.85462 0.209053V0.992997C3.85462 1.10845 3.94822 1.20205 4.06368 1.20205L5.0567 1.20205ZM7.64398 2.53455C7.64398 2.65001 7.55038 2.7436 7.43492 2.7436H6.62483C6.50937 2.7436 6.41578 2.65001 6.41578 2.53455V1.72448C6.41578 1.60902 6.50937 1.51542 6.62483 1.51542L7.43492 1.51542C7.55038 1.51542 7.64398 1.60902 7.64398 1.72448L7.64398 2.53455ZM5.84104 2.7436C5.9565 2.7436 6.0501 2.65001 6.0501 2.53455V1.72448C6.0501 1.60902 5.9565 1.51542 5.84104 1.51542L5.60585 1.51542C5.49039 1.51542 5.3968 1.60902 5.3968 1.72448V2.53455C5.3968 2.65001 5.49039 2.7436 5.60585 2.7436H5.84104ZM11.6417 10.7009H12.2819C15.4426 10.7009 18.0048 13.2631 18.0048 16.4237V17.1292C18.0048 20.2899 15.4426 22.852 12.2819 22.852H7.64351C7.52806 22.852 7.43446 22.9456 7.43446 23.0611V23.845C7.43446 23.9605 7.52806 24.0541 7.64351 24.0541H12.2819C16.1065 24.0541 19.2069 20.9537 19.2069 17.1292V16.4237C19.2069 12.5992 16.1065 9.49883 12.2819 9.49883H11.6417C11.5262 9.49883 11.4326 9.59243 11.4326 9.70789V10.4918C11.4326 10.6073 11.5262 10.7009 11.6417 10.7009ZM5.06022 13.9386C5.17567 13.9386 5.26927 13.845 5.26927 13.7295L5.26927 12.843C5.26927 12.7276 5.17567 12.634 5.06022 12.634H3.61956C3.50411 12.634 3.41051 12.7276 3.41051 12.843V13.7295C3.41051 13.845 3.50411 13.9386 3.61956 13.9386H5.06022ZM12.2396 13.9386H7.03644C6.92098 13.9386 6.82739 13.845 6.82739 13.7295V12.843C6.82739 12.7276 6.92098 12.634 7.03644 12.634H12.2396C14.3984 12.634 16.1485 14.4498 16.1485 16.6896V16.8882C16.1485 19.128 14.3984 20.9438 12.2396 20.9438H4.87701C4.76155 20.9438 4.66796 20.8502 4.66796 20.7348V19.8483C4.66796 19.7328 4.76155 19.6392 4.87701 19.6392H12.2396C13.704 19.6392 14.8911 18.4075 14.8911 16.8882V16.6896C14.8911 15.1703 13.704 13.9386 12.2396 13.9386ZM6.38994 13.7295C6.38994 13.845 6.29635 13.9386 6.18089 13.9386H5.83363C5.71817 13.9386 5.62457 13.845 5.62457 13.7295L5.62457 12.843C5.62457 12.7276 5.71817 12.634 5.83362 12.634H6.18089C6.29635 12.634 6.38994 12.7276 6.38994 12.843V13.7295ZM4.1764 20.7349C4.1764 20.8504 4.0828 20.944 3.96734 20.944H3.29206C3.17661 20.944 3.08301 20.8504 3.08301 20.7349V19.8484C3.08301 19.733 3.17661 19.6394 3.29206 19.6394H3.96734C4.0828 19.6394 4.1764 19.733 4.1764 19.8484V20.7349ZM11.1842 10.4918C11.1842 10.6073 11.0906 10.7009 10.9751 10.7009H8.83232C8.71686 10.7009 8.62327 10.6073 8.62327 10.4918V9.70789C8.62327 9.59243 8.71686 9.49883 8.83232 9.49883H10.9751C11.0906 9.49883 11.1842 9.59243 11.1842 9.70789V10.4918ZM8.04898 10.7009C8.16443 10.7009 8.25803 10.6073 8.25803 10.4918V9.70789C8.25803 9.59243 8.16443 9.49883 8.04898 9.49883H5.30512C5.18966 9.49883 5.09607 9.59243 5.09607 9.70789V10.4918C5.09607 10.6073 5.18966 10.7009 5.30512 10.7009H8.04898ZM6.76817 23.8452C6.76817 23.9607 6.67458 24.0543 6.55912 24.0543H0.209053C0.0935963 24.0543 0 23.9607 0 23.8452V23.0613C0 22.9458 0.0935963 22.8522 0.209053 22.8522H6.55912C6.67458 22.8522 6.76817 22.9458 6.76817 23.0613V23.8452ZM9.73274 12.2387H12.1661C14.5393 12.2387 16.4632 14.1571 16.4632 16.5236V17.0292C16.4632 19.3957 14.5393 21.3141 12.1661 21.3141H5.7425C5.62705 21.3141 5.53345 21.4077 5.53345 21.5232V22.3293C5.53345 22.4448 5.62705 22.5384 5.7425 22.5384H12.1661C15.2174 22.5384 17.691 20.0719 17.691 17.0292V16.5236C17.691 13.4809 15.2174 11.0144 12.1661 11.0144H9.73274C9.61729 11.0144 9.52369 11.108 9.52369 11.2235V12.0296C9.52369 12.1451 9.61729 12.2387 9.73274 12.2387ZM9.04341 12.0296C9.04341 12.1451 8.94981 12.2387 8.83435 12.2387H8.18483C8.06938 12.2387 7.97578 12.1451 7.97578 12.0296V11.2235C7.97578 11.108 8.06938 11.0144 8.18483 11.0144L8.83435 11.0144C8.94981 11.0144 9.04341 11.108 9.04341 11.2235V12.0296ZM4.67109 22.5383C4.78655 22.5383 4.88015 22.4447 4.88015 22.3292L4.88015 21.523C4.88015 21.4076 4.78655 21.314 4.67109 21.314H2.82049C2.70504 21.314 2.61144 21.4076 2.61144 21.523V22.3292C2.61144 22.4447 2.70503 22.5383 2.82049 22.5383H4.67109ZM1.91716 22.3296C1.91716 22.4451 1.82357 22.5386 1.70811 22.5386H1.67247C1.55702 22.5386 1.46342 22.4451 1.46342 22.3296L1.46342 21.5234C1.46342 21.408 1.55702 21.3144 1.67247 21.3144H1.70811C1.82357 21.3144 1.91716 21.408 1.91716 21.5234V22.3296Z" fill="#0056D6"/>
<path d="M24.9761 18.5273V5.05013H30.6565C31.5489 5.05013 32.3087 5.20691 32.9358 5.52048C33.575 5.82198 34.0635 6.25615 34.4011 6.82297C34.7509 7.37774 34.9258 8.05311 34.9258 8.84908C34.9258 9.46415 34.7569 10.043 34.4192 10.5857C34.0936 11.1164 33.569 11.5566 32.8454 11.9063V10.7666C33.5087 11.0199 34.0333 11.3335 34.4192 11.7073C34.8052 12.0812 35.0765 12.4973 35.2333 12.9556C35.3901 13.4138 35.4685 13.8962 35.4685 14.4028C35.4685 15.6932 35.0403 16.7063 34.1841 17.4419C33.3399 18.1655 32.164 18.5273 30.6565 18.5273H24.9761ZM27.4364 16.3565H30.9097C31.5489 16.3565 32.0554 16.1816 32.4293 15.8319C32.8152 15.4701 33.0082 14.9937 33.0082 14.4028C33.0082 13.8118 32.8152 13.3355 32.4293 12.9736C32.0554 12.6118 31.5489 12.4309 30.9097 12.4309H27.4364V16.3565ZM27.4364 10.2782H30.7831C31.2896 10.2782 31.6936 10.1335 31.9951 9.84404C32.2966 9.54254 32.4474 9.15661 32.4474 8.68627C32.4474 8.21592 32.2966 7.84206 31.9951 7.56467C31.6936 7.28729 31.2896 7.1486 30.7831 7.1486H27.4364V10.2782ZM36.9411 18.5273V5.05013H41.9521C42.8687 5.05013 43.6767 5.21897 44.3762 5.55666C45.0878 5.88228 45.6425 6.36469 46.0405 7.00388C46.4385 7.631 46.6375 8.39682 46.6375 9.30133C46.6375 10.23 46.4144 11.0199 45.9681 11.6712C45.534 12.3224 44.943 12.8048 44.1953 13.1184L47.2887 18.5273H44.5028L41.1923 12.6118L42.7843 13.5525H39.4014V18.5273H36.9411ZM39.4014 11.3817H41.9883C42.4345 11.3817 42.8204 11.2973 43.1461 11.1284C43.4717 10.9475 43.725 10.7003 43.9059 10.3867C44.0868 10.0732 44.1772 9.71138 44.1772 9.30133C44.1772 8.87923 44.0868 8.51742 43.9059 8.21592C43.725 7.90236 43.4717 7.66115 43.1461 7.49231C42.8204 7.31141 42.4345 7.22096 41.9883 7.22096H39.4014V11.3817ZM48.3585 18.5273V5.05013H57.3131V7.22096H50.8187V10.6762H56.9513V12.847H50.8187V16.3565H57.3131V18.5273H48.3585ZM58.5745 18.5273V5.05013H67.5653V7.22096H61.0347V10.9475H66.7513V13.1184H61.0347V18.5273H58.5745ZM68.6315 18.5273V5.05013H77.6223V7.22096H71.0918V10.9475H76.8083V13.1184H71.0918V18.5273H68.6315ZM78.6885 18.5273V5.05013H80.6061L88.0231 15.0359L87.0281 15.2349V5.05013H89.4884V18.5273H87.5527L80.2443 8.46918L81.1488 8.27019V18.5273H78.6885ZM91.5545 18.5273V5.05013H94.0148V18.5273H91.5545Z" fill="#1863D3"/>
</g>
</svg>
