<svg width="70" height="58" viewBox="0 0 70 58" fill="none" xmlns="http://www.w3.org/2000/svg">
<path d="M64.5625 0.109375H5.4375C4.19015 0.109375 2.9939 0.604882 2.11189 1.48689C1.22988 2.3689 0.734375 3.56515 0.734375 4.8125V53.1875C0.734375 54.4348 1.22988 55.6311 2.11189 56.5131C2.9939 57.3951 4.19015 57.8906 5.4375 57.8906H64.5625C65.8098 57.8906 67.0061 57.3951 67.8881 56.5131C68.7701 55.6311 69.2656 54.4348 69.2656 53.1875V4.8125C69.2656 3.56515 68.7701 2.3689 67.8881 1.48689C67.0061 0.604882 65.8098 0.109375 64.5625 0.109375ZM5.4375 4.14062H64.5625C64.7407 4.14062 64.9116 4.21141 65.0376 4.33741C65.1636 4.46341 65.2344 4.63431 65.2344 4.8125V40.9493L55.3343 31.0492C54.8976 30.6124 54.3791 30.266 53.8084 30.0296C53.2378 29.7932 52.6262 29.6715 52.0085 29.6715C51.3909 29.6715 50.7792 29.7932 50.2086 30.0296C49.638 30.266 49.1195 30.6124 48.6827 31.0492L41.487 38.245L26.232 22.9867C25.7953 22.5499 25.2768 22.2035 24.7062 21.9671C24.1355 21.7307 23.5239 21.609 22.9062 21.609C22.2886 21.609 21.677 21.7307 21.1063 21.9671C20.5357 22.2035 20.0172 22.5499 19.5805 22.9867L4.76562 37.8016V4.8125C4.76562 4.63431 4.83641 4.46341 4.96241 4.33741C5.08841 4.21141 5.25931 4.14062 5.4375 4.14062ZM4.76562 53.1875V43.5024L22.4292 25.8388C22.4917 25.7759 22.566 25.7259 22.6479 25.6918C22.7297 25.6576 22.8176 25.6401 22.9062 25.6401C22.9949 25.6401 23.0828 25.6576 23.1646 25.6918C23.2465 25.7259 23.3208 25.7759 23.3833 25.8388L51.4038 53.8594H5.4375C5.25931 53.8594 5.08841 53.7886 4.96241 53.6626C4.83641 53.5366 4.76562 53.3657 4.76562 53.1875ZM64.5625 53.8594H57.1047L44.3391 41.0938L51.5315 33.898C51.5939 33.8355 51.668 33.7859 51.7495 33.7521C51.8311 33.7183 51.9185 33.7009 52.0068 33.7009C52.0951 33.7009 52.1826 33.7183 52.2641 33.7521C52.3457 33.7859 52.4198 33.8355 52.4822 33.898L65.2478 46.6636V53.1875C65.2478 53.2769 65.23 53.3654 65.1954 53.4478C65.1608 53.5302 65.1101 53.6048 65.0463 53.6674C64.9825 53.73 64.9068 53.7792 64.8237 53.8121C64.7407 53.8451 64.6519 53.8612 64.5625 53.8594ZM41.0469 19.5938C41.0469 18.9293 41.2439 18.2798 41.613 17.7274C41.9822 17.1749 42.5068 16.7444 43.1207 16.4901C43.7345 16.2358 44.41 16.1693 45.0616 16.2989C45.7133 16.4285 46.3119 16.7485 46.7817 17.2183C47.2515 17.6881 47.5714 18.2867 47.7011 18.9384C47.8307 19.59 47.7642 20.2655 47.5099 20.8793C47.2556 21.4932 46.8251 22.0178 46.2726 22.387C45.7202 22.7561 45.0707 22.9531 44.4062 22.9531C43.5153 22.9531 42.6608 22.5992 42.0308 21.9692C41.4008 21.3392 41.0469 20.4847 41.0469 19.5938Z" fill="#365486"/>
</svg>
